/* XPM */
static char *_dbd12768d9748c0b4c812ab7e6f2d449SFwjVHkYPspEYGh[] = {
/* columns rows colors chars-per-pixel */
"64 64 220 2 ",
"   c None",
".  c #151B1F",
"X  c #1D1E1E",
"o  c #171715",
"O  c #0D161E",
"+  c #1D1E20",
"@  c #242323",
"#  c #2C2521",
"$  c #2B2C2D",
"%  c #272729",
"&  c #332623",
"*  c #3B2D23",
"=  c #352A25",
"-  c #2E2E32",
";  c #2F3033",
":  c #323335",
">  c #35363B",
",  c #3A3C3E",
"<  c #36393B",
"1  c #3F3024",
"2  c #201F20",
"3  c #432B25",
"4  c #482D26",
"5  c #522F27",
"6  c #493425",
"7  c #533A26",
"8  c #593628",
"9  c #4E3834",
"0  c #67372A",
"q  c #763A2C",
"w  c #5D4132",
"e  c #6A4528",
"r  c #664528",
"t  c #764C2A",
"y  c #6E443B",
"u  c #3C3C43",
"i  c #413E46",
"p  c #3E4647",
"a  c #43444B",
"s  c #434D4D",
"d  c #484A4B",
"f  c #554D4B",
"g  c #55534E",
"h  c #5C514E",
"j  c #4A4A54",
"k  c #4C4C57",
"l  c #465151",
"z  c #4A5253",
"x  c #4E5759",
"c  c #535352",
"v  c #535A5C",
"b  c #56555C",
"n  c #4C4F53",
"m  c #674E48",
"M  c #7A4E44",
"N  c #68524A",
"B  c #765449",
"V  c #6B5F52",
"C  c #78634B",
"Z  c #6D6150",
"A  c #786859",
"S  c #5B5A65",
"D  c #585866",
"F  c #635E6C",
"G  c #5D6267",
"H  c #5F6070",
"J  c #60656A",
"K  c #676A6B",
"L  c #686976",
"P  c #6E7378",
"I  c #74767B",
"U  c #7E6D63",
"Y  c #833E2E",
"T  c #89442E",
"R  c #91432F",
"E  c #89572C",
"W  c #925B2D",
"Q  c #964836",
"!  c #914D38",
"~  c #AA4C35",
"^  c #B54D34",
"/  c #A8553B",
"(  c #BE5035",
")  c #B95439",
"_  c #9C612E",
"`  c #A4642F",
"'  c #AD6930",
"]  c #AB6239",
"[  c #B66A35",
"{  c #BD7431",
"}  c #B1742E",
"|  c #CB5539",
" . c #C85639",
".. c #D55738",
"X. c #D3593A",
"o. c #DE5A39",
"O. c #D55637",
"+. c #E25B39",
"@. c #C76938",
"#. c #CD7B34",
"$. c #C47735",
"%. c #D77B37",
"&. c #D56438",
"*. c #E46439",
"=. c #E96D39",
"-. c #E76739",
";. c #ED7439",
":. c #E87839",
">. c #F27B39",
",. c #F07639",
"<. c #845447",
"1. c #985442",
"2. c #884F42",
"3. c #A65742",
"4. c #B15741",
"5. c #996A42",
"6. c #9A7454",
"7. c #88694D",
"8. c #AD7644",
"9. c #B77A45",
"0. c #A76F43",
"q. c #85746E",
"w. c #CD813D",
"e. c #DE8336",
"r. c #D8853B",
"t. c #DA9332",
"y. c #E78938",
"u. c #F68439",
"i. c #F18E39",
"p. c #FB8C39",
"a. c #F98539",
"s. c #FF9E37",
"d. c #F49139",
"f. c #FF9439",
"g. c #FF9939",
"h. c #F49A36",
"j. c #E69438",
"k. c #FDA436",
"l. c #FFAD35",
"z. c #FFA339",
"x. c #FAAB3B",
"c. c #FFB335",
"v. c #FEBB35",
"b. c #FDBB3B",
"n. c #EFAB35",
"m. c #FFC436",
"M. c #FFCA3D",
"N. c #D58640",
"B. c #FFB945",
"V. c #F6AE41",
"C. c #FEC849",
"Z. c #FFD54D",
"A. c #FFD84D",
"S. c #FFC859",
"D. c #FFD757",
"F. c #FFD669",
"G. c #FFDD76",
"H. c #FFE477",
"J. c #727286",
"K. c #777788",
"L. c #757387",
"P. c #817A8D",
"I. c #7B818B",
"U. c #83848D",
"Y. c #848393",
"T. c #8A8999",
"R. c #8F8D9B",
"E. c #8D8BA4",
"W. c #8E8DA8",
"Q. c #9592A3",
"!. c #9594AC",
"~. c #9A99A8",
"^. c #9695B2",
"/. c #9A98B4",
"(. c #938FA6",
"). c #A49DB7",
"_. c #A19AAF",
"`. c #9DA0AA",
"'. c #A8A7B7",
"]. c #ADAEB4",
"[. c #FFE68C",
"{. c #FFE89C",
"}. c #FFEBA8",
"|. c #FFF2B6",
" X c #FFEFAE",
".X c #FFDC80",
"XX c #ABA7C5",
"oX c #B2A9C4",
"OX c #B6ACCA",
"+X c #B8B8C7",
"@X c #B2AED1",
"#X c #BDB4D3",
"$X c #B8B2D6",
"%X c #AFB0C3",
"&X c #C4BADD",
"*X c #C4B8D8",
"=X c #C6BDE4",
"-X c #CABEE2",
";X c #BFC2CC",
":X c #C8C7D8",
">X c #D3D3DA",
",X c #CAC8D2",
"<X c #FFF4C6",
"1X c #FFF8D9",
"2X c #CDC0E6",
"3X c #CAC1E8",
"4X c #D0C2E6",
"5X c #D3C6ED",
"6X c #DAD9E5",
"7X c #DDCDF6",
"8X c #D6C8F0",
"9X c #E1CFF9",
"0X c #E3D1FB",
"qX c #E5DCF2",
"wX c #E2DCEB",
"eX c #E3E2EB",
"rX c #FFFBE7",
"tX c #EBE9F3",
"yX c #FDFDFE",
"uX c #F7F6F8",
/* pixels */
"                                                                                                                                ",
"                                                                                                                                ",
"                                          X X X X X X X X X X X X X X X X X X X X                                               ",
"                                          * * * * * * * * * * * * * * * * * * * * =                                             ",
"                                        6 r r e e e e e e e e e r r r e e e e r r 7                                             ",
"                              . . . + * r E ` ' ' ' ' ' ' ' ' ' ' ' ' ' ' ' ' ` W t 6 @ . . .                                   ",
"                            # # # # & 7 E ' #.y.y.y.e.e.e.e.e.e.e.e.e.e.e.y.y.r.{ E 7 * # # # #                                 ",
"                          6 6 7 7 7 7 t _ #.y.f.f.f.f.f.f.f.f.f.f.f.f.f.f.f.f.d.e.' t 8 6 6 4 4 3                               ",
"                        = 7 t E W W W ` $.y.d.g.g.g.g.g.g.g.g.g.g.g.g.g.g.g.g.f.y.#.' W E T q q 5 =                             ",
"                      @ 6 t ` $.#.#.#.e.y.i.f.f.f.f.f.f.f.f.f.f.f.f.f.f.f.f.f.f.d.y.e.#.@. .^ Q q 4 #                           ",
"                    = 6 r E $.j.h.h.h.h.h.f.f.f.f.f.f.f.f.f.f.f.f.f.f.f.f.f.f.f.f.f.d.i.u.;.&.^ T 0 3 &                         ",
"                  * 7 t E } t.n.c.c.c.l.k.g.f.f.f.f.f.f.f.f.f.f.f.f.f.f.f.f.f.f.f.f.f.f.p.a.;.&.~ T 0 5 *                       ",
"                # 6 t ` $.t.n.v.m.m.m.v.l.z.g.f.f.f.f.f.f.f.f.f.f.f.f.f.f.f.f.f.f.f.f.f.f.p.u.:.&.^ Q q 5 & .                   ",
"              & 6 r _ #.j.V.C.C.Z.A.Z.C.B.x.s.f.f.f.f.f.f.f.f.f.f.f.f.f.f.f.f.f.f.f.f.f.f.f.p.u.;.&.^ R 0 3 &                   ",
"            6 7 e E { j.V.C.F.G.H.H.H.F.S.B.x.z.s.f.f.f.f.f.f.f.f.f.f.f.f.f.f.f.f.f.f.f.f.f.f.p.>.-.| ~ Y 0 5 3                 ",
"          * 8 E ` { t.n.C.F.[.}.|.|. X{.G.S.B.l.k.g.f.f.f.f.f.f.f.f.f.f.f.f.f.f.f.f.f.f.f.f.f.p.>.-.o. .~ R q 8 3 @             ",
"        @ 3 e ` #.j.n.b.D.H. X1XrXrX1X<X{.F.C.v.l.s.f.f.f.f.f.f.f.f.f.f.f.f.f.f.f.f.f.f.f.f.f.a.,.-.o.O.| ^ Q 0 3 @             ",
"      . 2 * e ' e.k.v.M.D.[.<XrXyXyXyX1X XH.Z.m.l.s.f.f.f.f.f.f.f.f.f.f.f.f.f.f.f.f.f.f.f.f.f.u.;.-.+.+.+.| ~ q 3 @ .           ",
"      O + * e [ y.l.v.M.D.[.<XrXyXyXyXrX|.H.Z.m.c.s.f.f.f.f.f.f.f.f.f.f.f.f.f.f.f.f.f.f.f.f.f.u.;.-.+.+.+.O.~ q 3 @ .           ",
"      . @ 6 t [ y.k.v.M.D.[.<XrXyXyXyX1X XH.Z.m.l.s.f.f.f.f.f.f.f.f.f.f.f.f.f.f.f.f.f.f.f.f.f.u.;.-.+.+.+.O.~ q 3 # .           ",
"      & 1 7 E { y.k.c.m.D.H. X1XrXrX1X<X{.F.C.v.l.s.f.f.f.f.f.f.f.f.f.f.f.f.f.f.f.f.f.f.f.f.f.u.;.-.+.+.+.O.^ Y 8 3 &           ",
"    6 7 e E ` #.y.s.l.b.C.F.[.}.|.|.|.}..XS.B.l.k.g.f.f.f.f.f.f.f.f.f.f.f.f.f.f.f.f.f.f.f.f.f.u.;.-.+.+.+...( Q q 0 5 3         ",
". # 6 t _ { %.y.d.g.s.k.B.S.F.G.H.H.H.F.S.B.x.z.s.f.f.f.f.f.f.f.f.f.f.f.f.f.f.f.f.f.f.f.f.f.f.a.;.-.+.o.o.o.|  .~ R q 5 &       ",
". # 7 E { e.i.f.f.f.f.s.z.B.C.C.Z.Z.Z.C.B.x.s.g.f.f.f.f.f.f.f.f.f.f.f.f.f.f.f.f.f.f.f.f.f.f.p.u.;.-.o.o.o.o.o.o.| ^ T 5 & X     ",
". # 7 W #.i.g.f.f.f.f.f.g.k.c.v.m.m.m.v.l.z.f.f.f.f.f.f.f.f.f.f.f.f.f.f.f.f.f.f.f.f.f.f.p.p.u.>.=.*.o.o.o.o.+.+.o.( R 8 & X     ",
". # 7 W #.d.g.f.f.f.f.f.f.s.k.l.l.c.l.l.k.s.f.f.f.f.f.f.f.f.f.f.f.f.f.f.f.f.f.f.f.f.f.f.p.>.;.=.-.+.o.o.o.+.+.+.o. .R 8 & X     ",
". # 7 W #.i.g.f.f.f.f.f.f.g.g.s.s.s.s.s.g.f.f.f.f.f.f.f.f.f.f.f.f.f.f.f.f.f.f.f.f.f.f.p.u.;.-.*.+.o.o.o.o.+.+.+.o.( R 8 & X     ",
". # 7 W #.i.g.f.f.f.f.f.f.f.f.f.f.f.f.f.f.f.f.f.f.f.f.f.f.f.f.f.f.f.f.f.f.f.f.f.f.f.f.p.u.=.*.o.o.o.o.o.o.o.+.+.o.( R 8 & X     ",
". # 7 W #.d.g.g.f.f.f.f.f.f.f.f.f.f.f.f.f.f.f.f.f.f.f.f.f.f.f.f.f.f.f.f.f.f.f.f.f.f.f.p.u.=.*.o.o.o.o.o.o.+.+.+.o.( R 8 & X     ",
". # 7 W #.i.g.f.f.f.f.f.f.f.f.f.f.f.f.f.f.f.f.f.f.f.f.f.f.f.f.f.f.f.f.f.f.f.f.f.f.f.f.p.>.=.*.o.o.o.o.o.o.o.+.+.o.( R 8 & X     ",
". # 7 E $.y.f.f.f.f.f.f.f.f.f.f.f.f.f.f.f.f.f.f.f.f.f.f.f.f.f.f.f.f.f.f.f.f.f.f.f.f.p.u.>.=.*.o.o.o.o.o.o.o.o.+...^ T 5 & X     ",
". # 6 t [ %.u.p.f.f.f.f.f.f.f.f.f.f.f.f.f.f.f.f.f.f.f.f.f.f.f.f.f.f.f.f.f.f.f.f.f.p.u.>.;.-.+.o.o.o.o.o.o.o.o.o.| ~ Y 5 & X     ",
". # 3 e W @.%.i.f.f.f.f.f.f.f.f.f.f.f.f.f.f.f.f.f.f.f.f.f.f.f.f.f.f.f.f.f.f.f.f.p.u.;.=.-.*.o.o.o.o.o.o.+.o...| ) Q q 4 & X     ",
". # * 0 T / @.%.i.f.f.f.f.f.f.f.f.d.d.d.i.i.i.i.d.d.d.d.f.f.f.f.f.f.f.f.f.f.f.p.u.>.=.*.+.+.o.o.o.o.o.o.o...| ) ~ T 0 4 # X     ",
"X @ = 9 y ! ] @.%.i.p.f.f.f.f.f.d.y.r.w.w.w.w.w.w.w.r.y.d.f.f.f.f.f.p.p.u.u.u.u.>.;.-.+.o.o.o.+.+.+.o.o...| ) / ! y 8 1 # X     ",
"X @ = 9 w M 1.] @.%.u.p.f.g.g.f.y.w.8.5.5.5.5.5.5.5.8.w.y.f.f.f.f.p.u.>.;.;.;.;.=.-.+.+.+.+.+.+.+.+.o...| ) / 1.M m 9 = % X     ",
"X @ $ < d m B 1./ @.%.i.d.f.f.i.N.8.7.Z V Z Z Z V Z 7.8.r.i.f.f.f.p.>.;.-.-.-.-.*.+.o.o.o.o.o.o.o.o.X.| ) / ! M m f , $ % X     ",
"X @ $ < a f m M 2./ [ %.r.y.y.N.9.6.A J J K K K J J A 6.9.r.y.i.u.u.;.-.+.+.+.+.o.o...X.|  . . . . .) ) / ! M m h d , $ % X     ",
"X @ $ < a n h m M <.5.0.8.9.9.8.6.q.I J.I.T.R.T.I.J.I q.6.9.#.%.:.,.=.*.+.+.+.o.o...|  .) / 3.3.1.1.1.1.2.M m h c s u $ % X     ",
"X @ $ < a j c h h N V B C C C A U q.Y.!.'.+X;X+X'.!.Y.I U 7.5.[ &.-.*.+.+.+.+.o...| ) / ! <.B B B B B N m m h c z s , $ % X     ",
"X @ $ < p d z c c c c c g g g b K U.~.%X:X6XeX6X:X%X/.I.K V B 3.) X.X.X.X.X.X.|  .) / ! M N h g c c c c c c c z d a < $ % X     ",
"X @ $ : , p d x v v x l s s s x L R.%X>XeXuXyXuXeX:X%XR.L b m <.1.4.4.4.4.4.4.4.3.1.2.M m h n l l l l x v v v z s , : $ %       ",
"    % $ : < a v G G v z s p s v P `.,XeXuXyXyXyXuXeX,X`.P v f m B <.<.<.<.<.<.<.B B N m h g j l s s z v G G v n , : $ %         ",
"      @ % : a S P P K G v z z G I ].>XtXyXyXyXyXyXtX>X`.I v n f h h h h h h h h h h g g c z z z x v D J P P J n > $ @           ",
"      o @ : j L U.T.U.K.P K G K I.'.>XtXyXyXyXyXyXtX,X`.I v d d d l z z z z z z z l z z x x v S J K P K.U.K.L k : % X           ",
"      o 2 : b P._.oX].].~.U.I P I.`.;X6XtXuXyXyXtX6X+XQ.P v s s s s s s s s s s s s s l x v J P K.R.Q.!.!.E.J.b > @ o           ",
"      o @ > S T.oX:X6X>X,X].R.U.Y.!.%X:X6XtXuXtX6X:X'.T.L v l l z z z z z z z z z z z x v J P Y.~.XXOXOXXX!.K.D > % o           ",
"        @ , S T.'.:XwXtXeX,X].~.R.!./.%X:X6X6X6X:X%X/.Y.J.K G G G J J J J J J G G G J K P K.Y.~.oX*X&X$XXXW.J.D , %             ",
"          < b J.R.'.:XqXtXwX,X].'.~.!./.'.+X+X+X'.~.E.T.Y.Y.Y.Y.Y.Y.Y.Y.Y.Y.Y.Y.Y.Y.Y.Y.R.Q.).oX#X&X#XXXW.L.L j > %             ",
"            i j F P.).4XqXtXeX>X,X'.Q.R.R.Q.~.~.R.R.R.!.).XXoXoXoXoXoXoXoXoXoXoXoXoXoXOXOX#X*X*X&X$XXXE.L D a u                 ",
"              $ i S Y.oX4XqXtXeX>X].~.R.T.R.R.T.T.T.Q.'.#X-X4X4X4X4X4X4X4X4X4X4X2X2X2X2X2X4X2X&X$XXXW.J.D u -                   ",
"                $ a L E.'.*X6X6X>X+X'.~.Q.Q.Q.Q.Q.~.).OX2X7X0X0X0X9X9X9X0X0X0X9X7X7X8X8X5X5X2X#XXXE.L.S i $ o                   ",
"                  < k F L.Q.oX:X:X:X*XOXOXoXoXoXoXOX#X&X5X9X0X0X0X0X0X0X0X0X0X0X7X5X3X=X=X=X$XXXT.L D a >                       ",
"                    : u k L E.'.@X#X*X&X&X&X-X&X-X-X2X5X8X7X7X7X7X7X7X7X7X7X9X7X5X=X@XXXXXXX).E.P k u -                         ",
"                      @ > k J.Y.!.).XXOX*X-X4X5X5X5X5X5X5X5X5X5X5X5X5X5X5X8X8X5X&XXX/.W.E.E.Y.J.D u $                           ",
"                        $ u D S L J.P.E.).OX&X3X3X3X3X=X=X=X=X=X=X=X=X=X=X=X3X&XXX!.K.L L L S D a :                             ",
"                          : u u i a k S K.!.XX$X$X@X@X@X@X@X@X@X@X@X@X@X@X$X$XXX^.K.D a u u u u >                               ",
"                            % % % % - a S K.W.^.^.^.^.^.^.^.^.^.^.^.^.^.^.^./.!.K.L a - % % % %                                 ",
"                              o o o . - j H P J.J.J.J.J.J.J.J.J.J.J.J.J.J.J.L.J.L b > @ o o o                                   ",
"                                        u a j j j j j j j j j j j j j j j j j j a u                                             ",
"                                          - - - ; ; ; ; ; ; ; ; ; ; ; ; ; ; ; - - -                                             ",
"                                          X X X X X X X X X X X X X X X X X X X X                                               ",
"                                                                                                                                ",
"                                                                                                                                "
};
